<?xml version="1.0" encoding="utf-8"?>
<!-- Svg Vector Icons : http://www.onlinewebfonts.com/icon -->
<!DOCTYPE svg PUBLIC "-//W3C//DTD SVG 1.1//EN" "http://www.w3.org/Graphics/SVG/1.1/DTD/svg11.dtd">
<svg version="1.1" xmlns="http://www.w3.org/2000/svg" xmlns:xlink="http://www.w3.org/1999/xlink" x="0px" y="0px" viewBox="0 0 1000 1000" enable-background="new 0 0 1000 1000" xml:space="preserve">
<metadata> Svg Vector Icons : http://www.onlinewebfonts.com/icon </metadata>
<g><g transform="translate(0.000000,511.000000) scale(0.100000,-0.100000)"><path d="M4569.1,5000.4C3129.3,4857,1886,4151.8,1037.4,3000.8C579.8,2380.1,277.3,1645.5,145.7,836.2c-60.9-381.1-60.9-1050.8,0-1443.7c231.8-1481,1064.6-2726.3,2341.4-3496.3c540.2-324.1,1141.2-540.2,1797.3-642.3c390.9-60.9,1043-60.9,1433.9,0c652.1,102.1,1227.6,306.4,1775.7,630.5c1119.6,661.9,1919,1716.7,2251,2969.9C9862.7-699.8,9900-399.3,9900,109.5s-37.3,809.3-155.2,1255.1C9242,3260.1,7666.7,4670.4,5724,4963.1C5427.5,5006.3,4830.3,5025.9,4569.1,5000.4z M7495.8,2113c51.1-25.5,92.3-66.8,117.9-117.9c39.3-76.6,39.3-104.1,35.4-2421.9l-5.9-2345.3l-546.1,428.2l-544.1,430.2H4563.2c-2201.9,2-2052.6-7.9-2158.7,127.7l-45.2,58.9l-5.9,1820.8c-3.9,1797.2-3.9,1824.7,35.4,1901.3c23.6,47.1,68.8,92.3,113.9,115.9c70.7,39.3,121.8,39.3,2494.6,41.3C7385.8,2152.3,7419.2,2152.3,7495.8,2113z"/><path d="M3255,1311.6c-74.7-39.3-139.5-143.4-139.5-220c0-76.6,64.8-180.7,139.5-220c62.8-33.4,157.1-35.4,1736.4-35.4c1579.2,0,1673.5,2,1736.4,35.4c74.6,39.3,139.5,143.4,139.5,220c0,76.6-64.8,180.7-139.5,220c-62.9,33.4-157.1,35.4-1736.4,35.4C3412.2,1346.9,3317.9,1345,3255,1311.6z"/><path d="M3274.7,329.5c-74.7-39.3-139.5-143.4-139.5-220s64.8-180.7,139.5-220c62.8-33.4,157.1-35.4,1736.4-35.4c1579.3,0,1673.5,2,1736.4,35.4c74.6,39.3,139.5,143.4,139.5,220s-64.8,180.7-139.5,220c-62.9,33.4-157.1,35.4-1736.4,35.4C3431.8,364.8,3337.5,362.9,3274.7,329.5z"/><path d="M3274.7-633c-74.7-39.3-139.5-143.4-139.5-220c0-76.6,64.8-180.7,139.5-220c62.8-33.4,157.1-35.4,1736.4-35.4c1579.3,0,1673.5,2,1736.4,35.4c74.6,39.3,139.5,143.4,139.5,220c0,76.6-64.8,180.7-139.5,220c-62.9,33.4-157.1,35.4-1736.4,35.4C3431.8-597.6,3337.5-599.6,3274.7-633z"/></g></g>
</svg>