<?xml version="1.0" encoding="UTF-8"?><svg width="16px" height="16px" viewBox="0 0 16 16" version="1.1" xmlns="http://www.w3.org/2000/svg" xmlns:xlink="http://www.w3.org/1999/xlink"><title>3931F7FA-84D1-4A97-ADC7-C9C73E8E02D5</title><g id="Navigation" stroke="none" stroke-width="1" fill="none" fill-rule="evenodd"><g id="Navigation/POI/Generic/16" fill="#00095B"><path d="M8,1 C10.7615906,1 13,3.15459242 13,5.81189366 C13,6.84376969 12.5831043,7.75658309 12.2853216,8.21872244 C12.1112333,8.48859771 8.45446216,14.1251102 8.45446216,14.1251102 L8.45446216,14.1251102 L9.36338648,14.1251102 C9.86549386,14.1251102 10.2723108,14.516694 10.2723108,15 L10.2723108,15 L5.72768921,15 C5.72768921,14.516694 6.13450614,14.1251102 6.63661352,14.1251102 L6.63661352,14.1251102 L7.54553784,14.1251102 C7.54553784,14.1251102 3.88876672,8.48859771 3.71467839,8.21872244 C3.41689573,7.75658309 3,6.84376969 3,5.81189366 C3,3.15459242 5.23840938,1 8,1 Z M8,1.87488976 C5.74418178,1.87488976 3.90892432,3.64142623 3.90892432,5.81189366 C3.90892432,6.5871236 4.2204508,7.34383268 4.48708081,7.75746504 C4.62910024,7.97795137 7.10756826,11.7994204 8,13.1734912 C8.89243174,11.7994204 11.3708998,7.97795137 11.5129192,7.75746504 C11.7795492,7.34383268 12.0910757,6.5871236 12.0910757,5.81189366 C12.0910757,3.64142623 10.2558182,1.87488976 8,1.87488976 Z M8,3.62528663 C9.25526846,3.62528663 10.2723108,4.60424594 10.2723108,5.81251102 C10.2723108,7.02077611 9.25526846,7.99973542 8,7.99973542 C6.74473154,7.99973542 5.72768921,7.02077611 5.72768921,5.81251102 C5.72768921,4.60424594 6.74473154,3.62528663 8,3.62528663 Z M8,4.50017639 C7.24683892,4.50017639 6.63661352,5.08755197 6.63661352,5.81251102 C6.63661352,6.53747008 7.24683892,7.12484566 8,7.12484566 C8.75316108,7.12484566 9.36338648,6.53747008 9.36338648,5.81251102 C9.36338648,5.08755197 8.75316108,4.50017639 8,4.50017639 Z" id="POIGeneric"></path></g></g></svg>