<?xml version="1.0" encoding="utf-8"?>
<!-- Svg Vector Icons : http://www.onlinewebfonts.com/icon -->
<!DOCTYPE svg PUBLIC "-//W3C//DTD SVG 1.1//EN" "http://www.w3.org/Graphics/SVG/1.1/DTD/svg11.dtd">
<svg version="1.1" xmlns="http://www.w3.org/2000/svg" xmlns:xlink="http://www.w3.org/1999/xlink" x="0px" y="0px" viewBox="0 0 1000 1000" enable-background="new 0 0 1000 1000" xml:space="preserve">
<metadata> Svg Vector Icons : http://www.onlinewebfonts.com/icon </metadata>
<g><g transform="translate(0.000000,512.000000) scale(0.100000,-0.100000)"><path d="M4556.2,5009.7c-634.3-65.4-1166.8-215.3-1720.4-486.3C1534.5,3885.2,575.3,2695.3,233.1,1292C142.8,921,113.9,684.6,102.4,246.3C87-336.1,144.7-782.1,302.3-1301.1C817.5-3009.9,2251.5-4322.8,3993-4682.3c626.6-128.8,1385.9-130.7,1999.1-1.9c1916.5,399.8,3412,1895.3,3811.8,3811.8c96.1,459.4,123,1082.2,67.3,1557C9606,2954.8,7831.8,4729,5561.6,4994.3C5340.5,5019.3,4744.6,5028.9,4556.2,5009.7z M7468.5,1797.6v-274.9L6228.6,869.1c-682.4-357.5-1247.5-651.6-1259.1-651.6c-9.6,0-563.2,294.1-1230.2,651.6l-1211,651.7l-5.8,255.7c-1.9,140.3,0,267.2,3.8,280.7c7.7,21.1,463.3,25,2475.9,21.1l2466.2-5.8V1797.6z M3743.1,338.6C4406.3-17,4958-307.3,4969.5-307.3c11.5,0,565.1,286.4,1232.2,636.3c665.1,349.9,1224.5,642,1243.7,647.8c30.8,13.5,32.7-53.8,32.7-1232.2c0-851.5-7.7-1272.5-21.1-1324.4c-30.8-107.7-144.2-211.4-261.4-236.4c-128.8-26.9-4248.2-28.8-4384.6-1.9c-126.9,25-240.3,124.9-271,238.3c-21.1,78.8-32.7,2566.2-11.5,2566.2C2534,986.4,3081.9,696.1,3743.1,338.6z"/></g></g>
</svg>