<?xml version="1.0" encoding="UTF-8"?>
<svg width="16px" height="16px" viewBox="0 0 16 16" version="1.1" xmlns="http://www.w3.org/2000/svg" xmlns:xlink="http://www.w3.org/1999/xlink">
    <title>9DD22A1D-7D9E-4B01-97B1-02003621A331</title>
    <g id="General-System" stroke="none" stroke-width="1" fill="none" fill-rule="evenodd">
        <g id="GeneralSystems/Search/16" fill="#FFFFFF">
            <path d="M1.9918,6.4569 C1.9918,3.9949 3.9948,1.9919 6.4568,1.9919 C8.9188,1.9919 10.9218,3.9949 10.9218,6.4569 C10.9218,8.9179 8.9188,10.9209 6.4568,10.9209 C3.9948,10.9209 1.9918,8.9179 1.9918,6.4569 M14.7448,14.7449 C14.9378,14.5509 14.9378,14.2369 14.7448,14.0429 L10.6488,9.9479 C11.5518,8.8649 12.0438,7.4289 11.8838,5.8759 C11.6258,3.3909 9.6448,1.3569 7.1658,1.0449 C3.5958,0.5949 0.5958,3.5969 1.0448,7.1659 C1.3568,9.6449 3.3898,11.6259 5.8758,11.8829 C7.4288,12.0439 8.8648,11.5519 9.9478,10.6489 L14.0428,14.7449 C14.2368,14.9379 14.5508,14.9379 14.7448,14.7449" id="Search"></path>
        </g>
    </g>
</svg>